<?xml version="1.0" encoding="utf-8"?>
<!-- Generator: Adobe Illustrator 21.0.2, SVG Export Plug-In . SVG Version: 6.00 Build 0)  -->
<svg version="1.1" id="Layer_1" xmlns="http://www.w3.org/2000/svg" xmlns:xlink="http://www.w3.org/1999/xlink" x="0px" y="0px"
	 viewBox="0 0 89 70.1" style="enable-background:new 0 0 89 70.1;" xml:space="preserve">
<style type="text/css">
	.st0{fill:#0478AF;}
</style>
<g id="box_150x150">
</g>
<g id="u_slucaju_nesrece">
	<g id="Layer_2">
		<circle class="st0" cx="22.8" cy="14.3" r="6.5"/>
		<path class="st0" d="M73.1,54.6C73.1,54.6,73.1,54.6,73.1,54.6l-16.4,0l3.8-14.5c0.3-1.7,0.1-2.9-0.3-4.1c-1.5-5-15-15.8-15-15.8
			s-8.1-7.3-13.3-4.5c-2.8,1.3-3,4.2-2.9,5.9c0,0.1,0,20.4,0,27c-7.5,0.9-13.8,6.7-13.8,9.7c-0.1,3.4,3.5,4,3.5,4c0.3,0,3.9,0,8.3,0
			c-1.7-1.3-2.8-3.4-2.8-5.8c0-4.1,3.3-7.4,7.4-7.4c4.1,0,7.4,3.3,7.4,7.4c0,2.3-1.1,4.4-2.8,5.7c4.3,0,7.6,0,7.6,0
			c2.4,0,4-1.3,3.5-4.3c-0.5-2.8-5.4-7.4-11.8-8.9l2.9-15.8l9.7,5.4l0.1,19.8c0,2.1,1.7,3.8,3.8,3.8c0,0,0,0,0,0H52h0h0l21.1,0
			c2.1,0,3.8-1.7,3.8-3.8C76.9,56.3,75.2,54.6,73.1,54.6z"/>
		<path class="st0" d="M37.1,56.4c0-3.2-2.6-5.7-5.7-5.7c-3.2,0-5.7,2.6-5.7,5.7c0,3.2,2.6,5.7,5.7,5.7
			C34.6,62.1,37.1,59.6,37.1,56.4z"/>
	</g>
</g>
</svg>
