<svg id="Layer_1" data-name="Layer 1" xmlns="http://www.w3.org/2000/svg" viewBox="0 0 252.89 252.9"><defs><style>.cls-1{fill:#2f2b71;}.cls-1,.cls-2,.cls-3,.cls-4,.cls-5{fill-rule:evenodd;}.cls-2{fill:#fefdfe;}.cls-3{fill:#dc2e28;}.cls-4{fill:#fff;}.cls-5{fill:#bfbfbf;}</style></defs><title>logo</title><path class="cls-1" d="M134.82,19.85h22.3c.14.44.53.37.88.4a120.15,120.15,0,0,1,25.5,5,126.68,126.68,0,0,1,87.74,102.2c.36,2.41.25,4.91,1.18,7.23v23.15c-.82,1.07-.62,2.4-.76,3.6a114.89,114.89,0,0,1-11.71,39.67c-21.68,42-55.94,65.78-103,70.88-1.93.21-3.93-.13-5.78.72H140.4c-.26-.65-.83-.39-1.29-.42a126.55,126.55,0,0,1-30.18-5.43Q64,252.62,38.8,212.71A122.26,122.26,0,0,1,20.26,157c-.13-1.57.14-3.24-.74-4.7V139.86c.73-.33.39-1,.43-1.5a131.08,131.08,0,0,1,5.42-29.56A126.73,126.73,0,0,1,127.59,21C130,20.67,132.51,20.79,134.82,19.85Zm88.57,102.53a4.56,4.56,0,0,0-.13-.81A80.4,80.4,0,0,0,192,79.5,69.87,69.87,0,0,0,169.9,68.87c-.46-.19-.91-.42-1.39-.56a79.51,79.51,0,0,0-28.73-2.9,61.66,61.66,0,0,0-17.3,3.46c-.14,0-.29-.08-.41,0a80.81,80.81,0,0,0-40.6,28.81A72.8,72.8,0,0,0,69,122.37a13.36,13.36,0,0,0-.57,1.38,79.54,79.54,0,0,0-2.9,28.73A61.33,61.33,0,0,0,69,169.78a4.29,4.29,0,0,0,.13.8,80.41,80.41,0,0,0,31.23,42.08,69.77,69.77,0,0,0,22.14,10.61,14.29,14.29,0,0,0,1.38.57,79.54,79.54,0,0,0,28.73,2.9,61.46,61.46,0,0,0,17.31-3.47c.13,0,.29.09.41,0a80.88,80.88,0,0,0,40.58-28.81,72.47,72.47,0,0,0,12.5-24.73c.19-.46.42-.91.56-1.37a79.37,79.37,0,0,0,2.9-28.74A61.39,61.39,0,0,0,223.39,122.37Z" transform="translate(-19.52 -19.85)"/><path class="cls-2" d="M169.9,68.87A69.87,69.87,0,0,1,192,79.5a80.4,80.4,0,0,1,31.23,42.07,4.56,4.56,0,0,1,.13.81c-10.77,0-21.56.1-32.33-.06a6.8,6.8,0,0,0-5.86,2.6c-2.37,2.78-5,5.34-7.61,8.1,1.61.8,3.25,1,4.3,2.31,1.31,1.63.87,3.74-1.06,4-6.8.85-12.95,4.15-19.74,5.08a34.18,34.18,0,0,0,4.34.68,124.59,124.59,0,0,1,23.51,3.9c6.85,2,13.15,5,18.26,10.14,1.13,1.11,1.58,2.42.57,3.8s-2.29,1.2-3.64.59a21.15,21.15,0,0,0-9.14-1.81c-6.49.1-13,.24-19.48.36-.4,0-1-.15-1.15.3-.8,3.74-3.74,2.64-6.16,2.82-1.91.13-3.65-.92-5.82-.91,3.79,7.34,3.07,15.88,7.33,22.86.18-5.12.26-10.19.14-15.26,0-1.71.48-2.08,2.13-2.08,17.13.06,34.27,0,51.41,0a72.47,72.47,0,0,1-12.5,24.73,80.88,80.88,0,0,1-40.58,28.81c-.13,0-.28,0-.41,0,0-6.34-.05-12.7,0-19a3.5,3.5,0,0,0-1.72-3.3,50.9,50.9,0,0,1-15.5-16.84,62.81,62.81,0,0,1-3.68-8.6c-.76,1.68-1.28,3-1.93,4.22-1.32,2.57-3.45,2.74-5.12.36-.86-1.26-1.5-2.67-2.27-4.06a3.55,3.55,0,0,0-.39.56c-3.92,9-9.62,16.9-16.07,24.27a3.54,3.54,0,0,0-.81,2.55c0,6.63,0,13.26,0,19.89a69.77,69.77,0,0,1-22.14-10.61,80.41,80.41,0,0,1-31.23-42.08,4.29,4.29,0,0,1-.13-.8q24.62,0,49.25,0c1.42,0,2.94-.52,4.32.42.36.25.59-.06.76-.42.95-2.11,1.92-4.19,3-6.52-1.85.47-3,1.66-4.48,2.31-2.52,1.12-4.93,2.57-7.81,2.53a2.49,2.49,0,0,1-2.39-1.5c-.54-1.09,0-1.9.55-2.74s1.56-1,1.74-2.2l-.86.15a81.36,81.36,0,0,1-25.77,2.87,3.28,3.28,0,0,1-1-6.39,43.52,43.52,0,0,0,9.59-4.54,95.3,95.3,0,0,1,13.44-6.91,70.21,70.21,0,0,1,14.17-3.37A38.41,38.41,0,0,1,113,139.12a15.33,15.33,0,0,0-5-1.85c-1.55-.27-3-.53-3.11-2.51s1.19-2.84,2.89-3.45c1.15-.41,2.54-.09,3.59-1-2.23-2.28-4.39-4.44-6.48-6.67a3.89,3.89,0,0,0-3.17-1.33c-10.91.06-21.83,0-32.75,0A72.8,72.8,0,0,1,81.47,97.64a80.81,80.81,0,0,1,40.6-28.81c.11,0,.26,0,.41,0q0,24.09,0,48.19c0,.67-.3,1.44.45,2l6.43,4.45c-.68-4-1.24-7.63-2.79-11a2.38,2.38,0,0,1,.18-2.8,2.74,2.74,0,0,1,2.94-.65,5.91,5.91,0,0,1,2.22,1.25c1.23,1,2.43,2.05,3.8,3.18.56-2.5.62-4.86,1.29-7.12,1.66-5.63,4.18-11,4.43-17.05.06-1.64,2.23-2.24,3.74-1.28a4.38,4.38,0,0,1,1.75,2.59c1.22,4,2.51,8,3.68,12a73.84,73.84,0,0,1,2.38,12c2.76-2.26,5.48-3.91,8.79-4.25,1.21-.14,2.53-.25,3.24,1s-.25,2.13-.94,3c-2.06,2.71-3.1,5.84-4.15,9.65a52.77,52.77,0,0,1,8.52-6.77,2.75,2.75,0,0,0,1.49-2.72C169.87,99.3,169.9,84.09,169.9,68.87Z" transform="translate(-19.52 -19.85)"/><path class="cls-3" d="M223.39,169.78c-17.13,0-34.27,0-51.41,0-1.65,0-2.17.37-2.12,2.08.12,5.08,0,10.14-.14,15.26-4.26-7-3.54-15.53-7.33-22.86,2.16,0,3.91,1,5.82.91,2.42-.17,5.36.92,6.16-2.82.1-.45.75-.29,1.15-.3,6.5-.12,13-.26,19.48-.36a21.15,21.15,0,0,1,9.14,1.81c1.34.61,2.67.75,3.64-.59s.56-2.69-.57-3.8c-5.11-5.15-11.4-8.16-18.26-10.14a124.59,124.59,0,0,0-23.51-3.9,34.18,34.18,0,0,1-4.34-.68c6.79-.93,12.94-4.23,19.74-5.08,1.93-.23,2.36-2.34,1.06-4-1-1.31-2.68-1.5-4.3-2.31,2.62-2.76,5.24-5.32,7.61-8.1a6.8,6.8,0,0,1,5.86-2.6c10.77.17,21.56.06,32.33.06a61.39,61.39,0,0,1,3.46,17.3,79.37,79.37,0,0,1-2.9,28.74C223.81,168.87,223.58,169.32,223.39,169.78Z" transform="translate(-19.52 -19.85)"/><path class="cls-3" d="M169.9,68.87c0,15.22,0,30.43,0,45.65a2.75,2.75,0,0,1-1.49,2.72,52.77,52.77,0,0,0-8.52,6.77c1.05-3.81,2.09-6.94,4.15-9.65.69-.9,1.62-1.79.94-3s-2-1.16-3.24-1c-3.31.34-6,2-8.79,4.25a73.84,73.84,0,0,0-2.38-12c-1.18-4-2.46-8-3.68-12A4.38,4.38,0,0,0,145.17,88c-1.51-1-3.68-.36-3.74,1.28-.26,6-2.78,11.43-4.43,17.05-.67,2.26-.73,4.62-1.29,7.12-1.36-1.13-2.57-2.17-3.8-3.18A5.91,5.91,0,0,0,129.7,109a2.74,2.74,0,0,0-2.94.65,2.38,2.38,0,0,0-.18,2.8c1.55,3.37,2.11,7,2.79,11L122.94,119c-.76-.52-.45-1.29-.45-2q0-24.09,0-48.19a61.66,61.66,0,0,1,17.3-3.46,79.51,79.51,0,0,1,28.73,2.9C169,68.45,169.43,68.68,169.9,68.87Z" transform="translate(-19.52 -19.85)"/><path class="cls-3" d="M69,122.37c10.92,0,21.84,0,32.75,0a3.89,3.89,0,0,1,3.17,1.33c2.09,2.23,4.25,4.39,6.48,6.67-1.05.88-2.44.55-3.59,1-1.7.6-3,1.48-2.89,3.45s1.55,2.24,3.11,2.51a15.33,15.33,0,0,1,5,1.85,38.41,38.41,0,0,0,10.57,4.41,70.21,70.21,0,0,0-14.17,3.37,95.3,95.3,0,0,0-13.44,6.91,43.52,43.52,0,0,1-9.59,4.54,3.28,3.28,0,0,0,1,6.39,81.36,81.36,0,0,0,25.77-2.87l.86-.15c-.18,1.17-1.22,1.47-1.74,2.2s-1.09,1.65-.55,2.74a2.49,2.49,0,0,0,2.39,1.5c2.88,0,5.29-1.41,7.81-2.53,1.45-.65,2.63-1.84,4.48-2.31-1.08,2.32-2.05,4.41-3,6.52-.17.36-.4.68-.76.42-1.38-.95-2.9-.42-4.32-.42q-24.63-.08-49.25,0a61.33,61.33,0,0,1-3.47-17.29,79.54,79.54,0,0,1,2.9-28.73A13.36,13.36,0,0,1,69,122.37Z" transform="translate(-19.52 -19.85)"/><path class="cls-3" d="M122.48,223.28c0-6.63,0-13.26,0-19.89a3.54,3.54,0,0,1,.81-2.55c6.45-7.37,12.14-15.24,16.07-24.27a3.55,3.55,0,0,1,.39-.56c.76,1.38,1.41,2.8,2.27,4.06,1.67,2.38,3.8,2.21,5.12-.36.64-1.24,1.16-2.54,1.93-4.22a62.81,62.81,0,0,0,3.68,8.6,50.9,50.9,0,0,0,15.5,16.84,3.5,3.5,0,0,1,1.72,3.3c-.09,6.35,0,12.71,0,19a61.46,61.46,0,0,1-17.31,3.47,79.54,79.54,0,0,1-28.73-2.9A14.29,14.29,0,0,1,122.48,223.28Z" transform="translate(-19.52 -19.85)"/><path class="cls-1" d="M249.37,138.38a14.26,14.26,0,0,1,0,3.18,2.69,2.69,0,0,1-2.79,2.42,2.52,2.52,0,0,1-2.82-2.09c-.4-2.16-.51-4.36-.75-6.55,0-.06,0-.17,0-.2,1.41-1.73,3.44-.45,5.1-1.07.89-.33,1,.46,1.08,1.13C249.28,136.26,249.32,137.32,249.37,138.38Z" transform="translate(-19.52 -19.85)"/><path class="cls-1" d="M236.69,185c1.1.42,2.62,1,4.14,1.59.54.22.41.7.25,1.07a35.52,35.52,0,0,1-2.51,5.83c-.87,1.36-2.08,1.94-3.63,1.2a2.7,2.7,0,0,1-1.64-3.47c.6-1.88,1.26-3.74,1.94-5.6C235.4,185.23,235.55,184.62,236.69,185Z" transform="translate(-19.52 -19.85)"/><path class="cls-1" d="M256.2,133.38c1.76-.64,2.25.26,2.16,2.09-.05,1.34.28,2.68.31,4a2.44,2.44,0,0,1-2.32,2.78c-1.6.15-2.49-.83-2.79-2.32a20.78,20.78,0,0,1-.42-3.37C253.07,133.29,252.26,133.54,256.2,133.38Z" transform="translate(-19.52 -19.85)"/><path class="cls-1" d="M245.16,119.77c-.6-2.07-1.15-3.91-1.76-5.93l9,.45Z" transform="translate(-19.52 -19.85)"/><path class="cls-1" d="M247.53,161.79c.26-2.12.51-4,.78-6.18l8,4.1Z" transform="translate(-19.52 -19.85)"/><path class="cls-1" d="M221.7,77.75,230,74.42l-4.15,8Z" transform="translate(-19.52 -19.85)"/><path class="cls-1" d="M41.85,112.91h9c-.61,1.7-1.17,3.32-1.73,4.94-.26.76-.63.57-1.1.18C46.09,116.43,44.18,114.84,41.85,112.91Z" transform="translate(-19.52 -19.85)"/><path class="cls-1" d="M47.81,197.57a3.71,3.71,0,0,1,.48-2c1.23-2.83,6.17-5.77,9.26-5.55a6.07,6.07,0,0,1,4.85,9.11,10.41,10.41,0,0,1-8.53,4.91C50.63,204.27,47.75,201,47.81,197.57Z" transform="translate(-19.52 -19.85)"/><path class="cls-1" d="M228.53,207.29l4.5,7.18c-3.06-.22-5.48-1.56-8.33-2.24Z" transform="translate(-19.52 -19.85)"/><path class="cls-1" d="M39.2,176.55c0-2.33,1.15-3.64,3-3.68,2.06,0,4.69,3.19,4.15,6.26-.37,2.1-3.46,2.37-5,2.13C39,180.9,40,177.9,39.2,176.55Z" transform="translate(-19.52 -19.85)"/><path class="cls-4" d="M215.31,230.91a18.35,18.35,0,0,0-1-1.56c-2.78-3.47-5.62-6.88-8.33-10.41a2.15,2.15,0,0,1,.25-2,16.18,16.18,0,0,1,2.77-2l7.5,9.79c2.08,2.71,4.12,5.47,6.27,8.12.92,1.14.87,1.76-.36,2.64-4.14,3-4.13,3-8.56.28-2.68-1.67-5.24-3.52-7.86-5.26-.6-.4-1.27-.71-1.92-1.06l-.57.57,9.66,12.23a21.38,21.38,0,0,1-3.13,2.48,2,2,0,0,1-1.82-.61c-4.52-6-9-12.07-13.57-18.31a51.44,51.44,0,0,1,4.54-3.41,2.65,2.65,0,0,1,2.24.34c4,2.6,7.92,5.32,11.87,8a11.51,11.51,0,0,0,1.55.73Z" transform="translate(-19.52 -19.85)"/><path class="cls-4" d="M197.17,69.58c4.76-6.21,9.25-12,13.66-17.87.93-1.24,1.59-1.46,2.84-.33,2,1.83,4.21,3.45,6.31,5.2s3,4.28,2.21,6.57c-1,2.75-2.84,4-6.07,4.06a6.13,6.13,0,0,0-.92.21c1.11,3.81.43,6.26-2.24,8.43a5.08,5.08,0,0,1-6.38.51C203.39,74.25,200.37,71.9,197.17,69.58Zm6.43,0a9.4,9.4,0,0,0,2.27,1.6c1.18.33,2.85.88,3.57.35,1.05-.77,2.18-2.65,1.89-3.68-.37-1.31-2.07-2.28-3.27-3.31-.12-.1-.82.21-1,.49C205.91,66.48,204.87,67.92,203.6,69.63Zm6.08-7.89c2.07.74,3.78,1.69,5.54,1.81.68.05,2.3-2,2.08-2.66-.55-1.66-1.88-3.06-3.11-4.87C212.57,58.08,211.41,59.53,209.68,61.73Z" transform="translate(-19.52 -19.85)"/><path class="cls-4" d="M103.5,255c-3.23-1.5-6.3-2.72-9.18-4.31a4.93,4.93,0,0,1-2.67-5.38c.61-3.47,2.2-5.43,4.77-5.93l1.73-.28c-4.11-5,1.27-8.29,1.26-12.36.5-.16.6-.23.67-.2,4.8,2,4.81,2,2.48,6.93-1,2-2.29,4,.57,5.7,1.27.77,1.94.81,2.47-.72.45-1.28,1.09-2.51,1.66-3.75,2-4.34,2-4.34,6.44-1.7Zm-.2-11.48c-3.25-2-5.27-1.29-6.3,1.83-.67,2,.75,2.79,2.13,3.49,1.6.8,1.78-.58,2.24-1.57C102,246,102.61,244.83,103.3,243.49Z" transform="translate(-19.52 -19.85)"/><path class="cls-4" d="M67.21,79.78C72.7,77,74.75,82.91,79,84.06c-.93,1.22-1.65,2.05-2.22,3C76,88.34,75,88.16,74,87.4s-2.23-1.85-3.39-2.73c-2.58-2-4.15-1.6-6,1.55l8,6a22.1,22.1,0,0,1-2.61,3.35,2.25,2.25,0,0,1-2.11-.2c-5.48-4.23-10.84-8.6-16.36-12.79-1.37-1-1.29-1.7-.28-2.83,1.36-1.53,2.64-3.13,3.9-4.76,2.31-3,4.53-3.9,7.23-2.94,3.09,1.11,4.47,3.27,4.45,6.88A3.31,3.31,0,0,0,67.21,79.78Zm-7.35-3.5a17.42,17.42,0,0,0-2.91,2.86c-.19.3.72,1.42,1.29,2s1.48.88,2,1.51c1.13,1.28,2,1.19,2.63-.33.31-.82.64-2,.27-2.61A22.68,22.68,0,0,0,59.85,76.28Z" transform="translate(-19.52 -19.85)"/><path class="cls-4" d="M117.66,245.43a35,35,0,0,0,4.43,1.35,2,2,0,0,0,1.57-1.09,61,61,0,0,0,1.73-7.2c.32-1.93,1-2.31,2.74-1.45a16.32,16.32,0,0,0,2.9.82q-1.55,5.73-3.09,11.46c-.88,3.3-1.88,6.57-2.56,9.91-.41,2.05-1.18,2.44-3,1.48a13.52,13.52,0,0,0-2.69-.72c.65-2.4,1.16-4.85,2-7.18.66-1.85.51-2.8-1.67-2.78a3,3,0,0,1-1.47-.37c-1.58-1-2.13-.15-2.44,1.29-.53,2.41-1.12,4.81-1.77,7.62l-5.13-1.36c2.19-8,4.28-15.71,6.41-23.58l5,1.42C119.64,238.62,118.65,242,117.66,245.43Z" transform="translate(-19.52 -19.85)"/><path class="cls-4" d="M57.19,110.13A31.3,31.3,0,0,1,43,102.53c-2.34-2.28-2-5.86.33-9.52,1.91-3.07,4.41-4.6,7.52-3.37A105.51,105.51,0,0,1,64,96.25c2,1.15,2.24,3.49,2.06,5.75C65.7,106.85,62.46,110.26,57.19,110.13ZM49.29,93.79c-1.41.9-2.79,1.3-3.14,2.12s0,2.7.65,3.07c3.95,2.28,8,4.34,12.18,6.23.62.27,2.25-.54,2.67-1.29s.26-2.55-.29-2.9C57.48,98.5,53.43,96.22,49.29,93.79Z" transform="translate(-19.52 -19.85)"/><path class="cls-4" d="M188.86,37.92c-.72,2.32-1.37,4.5-2.08,6.66-1.27,3.88-2.45,7.81-3.94,11.63-1,2.57-3.19,3.52-6,3.52-6.92,0-10.48-4.49-8.55-11.12,1.5-5.15,3.13-10.26,4.7-15.39a4.12,4.12,0,0,1,1,.13c4.09,1.73,4,1.73,2.61,6-1.22,3.64-2.43,7.28-3.45,11a6.58,6.58,0,0,0,.08,4A3.2,3.2,0,0,0,176,55.58a3.81,3.81,0,0,0,2.49-2.08c1.42-3.84,2.54-7.79,3.76-11.7.06-.16,0-.35.08-.51C183.5,36.5,183.5,36.5,188.86,37.92Z" transform="translate(-19.52 -19.85)"/><path class="cls-4" d="M42.64,115.45c-.63-.14-1.31-.51-1.76-.34-1.09.42-2.64.91-2.94,1.74s.4,2.92,1.1,3.16a116.3,116.3,0,0,0,13.18,3.61c2.13.44,2.77-1.48,3-3.32.28-2-1.19-1.88-2.44-2.12a18.56,18.56,0,0,1-2-.61c-.93.95-1.62,2.26-2.4,2.32-2.12.14-2.67-.93-2.06-3,.49-1.71.88-3.45,1.38-5.36,3.76,1,7.42,1.84,11,2.86a1.62,1.62,0,0,1,.82,1.35c-.57,3.1-.92,6.3-2.05,9.18-1.46,3.77-5.34,4.93-10.33,3.53-3.1-.87-6.18-1.86-9.17-3-3.8-1.47-4.94-5-3.48-10.23,1.09-3.84,4.15-5.89,7.94-5.08A2.33,2.33,0,0,1,43.68,112,14.13,14.13,0,0,1,42.64,115.45Z" transform="translate(-19.52 -19.85)"/><path class="cls-4" d="M91,55.67c0-1.38,0-2.77,0-4.16,0-1.11-.18-2.21-.21-3.33,0-3.68,1.09-5,5.09-6-.18,3.33-.21,6.63-.55,9.91-.22,2.15.73,3.29,2.42,4.3,3.33,2,6.57,4.16,9.88,6.27-2.82,3.1-4.56,3.33-7.63,1.09-2-1.45-4-3-6-4.4a2.67,2.67,0,0,0-2-.53,12.69,12.69,0,0,0,.81,1.62c1.5,2.38,3.11,4.7,4.51,7.14.25.43-.17,1.44-.56,2s-1.16.66-1.71,1.06c-1.21.84-1.91.51-2.63-.75C89,63.95,85.55,58,82.12,52.14c-.59-1-1.42-2.18.31-2.59,1.39-.33,2.81-3.25,4.37-.2,1.11,2.16,2.26,4.31,3.38,6.47Z" transform="translate(-19.52 -19.85)"/><path class="cls-4" d="M47.91,176.47l10.64-3.1c.31.34.4.4.41.47,1.16,4.38,1.16,4.38-3.14,5.56l-19.13,5.32c-.49-1.78-.93-3.35-1.44-5.16l9.37-2.21c0-.29-.08-.57-.12-.85-2.12-.5-4.23-1.39-6.34-1.42-4.12-.08-5.34-2.52-5.75-6.41a18.89,18.89,0,0,1,2.31.43c2.75.88,5.46,2,8.27,2.63a4.14,4.14,0,0,0,3.13-.93c3.18-2.69,6.19-5.57,9.57-8.67A25.49,25.49,0,0,1,57,166.83a3.49,3.49,0,0,1-1.3,2.44c-2.29,1.89-4.75,3.6-7.13,5.41a5.91,5.91,0,0,0-.93,1.09Z" transform="translate(-19.52 -19.85)"/><path class="cls-4" d="M223.71,95.55a24.59,24.59,0,0,1-2.83-3.38c-.27-.45.18-1.46.51-2.11.62-1.17,2.24-2.65,1.95-3.28a16.74,16.74,0,0,0-3.75-4.43c-.31-.29-1.33-.08-1.89.18C214,84.22,214,84.25,211,80.35c1.22-.6,2.37-1.15,3.54-1.7,6-2.79,12-5.63,18.08-8.34a2.48,2.48,0,0,1,2.11.58,19.61,19.61,0,0,1,2.79,3.32,2,2,0,0,1,.17,1.77c-4.41,6.39-8.88,12.72-13.35,19.07C224.3,95.17,224.13,95.24,223.71,95.55Zm2.06-11.65c2.2-2.83,4.18-5.37,6.16-7.91l-.56-.54-8.57,4.75Z" transform="translate(-19.52 -19.85)"/><path class="cls-4" d="M61.86,226.21l12.46-21.79a28.76,28.76,0,0,1,3.45,3.45c.27.37-.38,1.46-.7,2.18-.45,1.06-1.66,2.58-1.35,3a26.71,26.71,0,0,0,4.5,4.46c.21.18,1.08-.29,1.58-.59,3.61-2.22,3.6-2.23,6.66,1.84-2.4,1.3-4.77,2.55-7.11,3.85q-6.67,3.77-13.31,7.62c-1.12.65-1.91.75-2.8-.45A41.46,41.46,0,0,0,61.86,226.21Zm6.34-1.73.6.62,7.85-5.18c-1.13-1.13-2.13-2.12-3.32-3.29C71.57,219.34,69.88,221.9,68.2,224.48Z" transform="translate(-19.52 -19.85)"/><path class="cls-4" d="M108.41,62.27c-.31-7.12-.61-14-.91-20.92-.06-1.35-.59-3.38.06-3.9,1.45-1.15,3.48-1.62,5.32-2.17.42-.13,1.3.43,1.61.9,4.24,6.4,8.41,12.84,12.6,19.28.07.12,0,.33,0,.76-1.05.41-2.17.9-3.34,1.3-2,.69-2.63-.89-3.14-2.19-.78-2.08-2-2.25-3.77-1.4-.68.32-1.6.24-2.15.68-.73.58-1.7,1.49-1.7,2.26C113,61.12,113.06,61.12,108.41,62.27Zm3.69-20.63-.6.29c.35,3.08.71,6.16,1.09,9.43,1.19-.33,2.12-.63,3.09-.86,1.65-.4,1.5-1.14.64-2.34-1.07-1.5-1.89-3.17-2.88-4.74A21.82,21.82,0,0,0,112.1,41.63Z" transform="translate(-19.52 -19.85)"/><path class="cls-4" d="M229.89,187.71a18,18,0,0,1,1.49-4.3c.36-.56,1.73-.51,2.66-.61,1.13-.14,3,.26,3.28-.25a22.65,22.65,0,0,0,1.81-5.79c.07-.31-.87-.92-1.42-1.26-3.35-2.11-3.49-2.85-1-6.57L252,179.46c.35.25.68.51,1,.75,4.19,2.76,4.12,2.74,2.61,7.46a2.08,2.08,0,0,1-2.59,1.7c-6.4-.52-12.79-.94-19.2-1.38Zm20.67-3.23c.1-.32.2-.63.31-.94-2.72-1.53-5.43-3.05-8.25-4.62-.56,1.55-1,2.81-1.56,4.34Z" transform="translate(-19.52 -19.85)"/><path class="cls-4" d="M160.24,238.21a18.42,18.42,0,0,1,4.14-.9c.59,0,1.27,1,1.79,1.62.76.95,1.49,2.83,2.13,2.8a20.7,20.7,0,0,0,5.83-1.59c.33-.13.38-1.22.39-1.88,0-4,.07-4.09,4.61-4.59,0,3.89,0,7.77,0,11.65s-.14,8-.37,12a2.48,2.48,0,0,1-1.37,1.69,14.92,14.92,0,0,1-3.91,1.09,2.22,2.22,0,0,1-1.86-.69c-3.84-6.75-7.59-13.54-11.35-20.32C160.15,238.94,160.24,238.65,160.24,238.21ZM174.58,244l-4.85,1.24c1.5,3.12,2.89,6,4.29,9,.19-.06.37-.14.57-.2Z" transform="translate(-19.52 -19.85)"/><path class="cls-4" d="M54.43,140.46v5.1c-1.17,2.19-5.4-.17-5.1,3.81.38,4.92.42,4.92,5.8,6.15.08,1.43.17,2.94.28,4.81-2.35-.39-4.56-.67-6.73-1.15-5.22-1.19-10.4-2.6-15.66-3.63-1.77-.35-2.2-1.07-2.33-2.64-.39-4.72-.4-4.57,4.15-6,5.7-1.73,11.32-3.73,17-5.62Zm-8.55,8.29-9.58,2.6c.06.29.12.56.17.84l9.62,1.25C46,151.71,46,150.47,45.88,148.75Z" transform="translate(-19.52 -19.85)"/><path class="cls-4" d="M238.1,131.32l7.61,1.68c4.9,1.08,9.78,2.26,14.71,3.17,1.78.33,2.38,1,2.12,2.71,0,.17,0,.35,0,.52-.07,1.46.39,3.29-.34,4.25s-2.62,1-4,1.42c-5.73,1.87-11.49,3.69-17.19,5.67-1.53.52-2,.47-2.27-1.33-.41-2.82.29-4.38,3.34-4.49,1.49,0,2-1,1.89-2.44a18.56,18.56,0,0,1-.08-3.33c.12-1.55-.56-2.06-2.06-2.21C237.66,136.52,237.61,136.38,238.1,131.32Zm9.5,7V143l9.3-2.43c0-.29,0-.6,0-.89Z" transform="translate(-19.52 -19.85)"/><path class="cls-4" d="M140.59,47.26a3.38,3.38,0,0,1,.22.87c-.11,1.61.23,3.14,2,3.25a3.77,3.77,0,0,0,3-1.29c.91-1.53,0-3-1.4-3.89-1.79-1.16-3.61-2.26-5.44-3.33-3-1.74-3.5-4.45-3.1-7.54.37-2.74,2.12-3.89,4.64-4.77a9.13,9.13,0,0,1,7.4.34c2.2,1.07,2.75,3.15,3,5.29,0,.37-.71,1.16-1.18,1.23a29.2,29.2,0,0,1-3.95.06,3.7,3.7,0,0,0-.25-1.19c-.54-.84-1-2.06-1.79-2.32a2.74,2.74,0,0,0-2.53,1,3.54,3.54,0,0,0,.53,3.14,55.81,55.81,0,0,0,6.12,4.11c3.81,2.47,4.71,8.31,1.34,11.23-2.37,2-5.53,2.33-8.71,1.66-3-.63-4.38-2.51-4.93-5.44-.37-1.91.13-2.56,2-2.42C138.53,47.32,139.46,47.26,140.59,47.26Z" transform="translate(-19.52 -19.85)"/><path class="cls-4" d="M74.91,77.39a2.11,2.11,0,0,1,.36-.64c1-.88,2.09-1.73,3.24-2.67a5.75,5.75,0,0,0,1.37,1.11c.93.34,2.14.92,2.87.59s1.82-1.85,1.62-2.49c-.33-1-1.57-2.35-2.46-2.37-2.27-.07-4.56.73-6.84.75-1.87,0-4.14,0-5.55-1-6.41-4.45-2.8-10,1.95-13,2.44-1.54,4.74-1.12,6.8.6a4.21,4.21,0,0,1,.83,2.32c-1.34.63-1.84,3.37-3.87,2-1.29-.89-2.41-1.6-3.51-.29-.56.68-.91,2.54-.55,2.81a7,7,0,0,0,3.95,1.62c1.82,0,3.6-1,5.45-1.26,3.72-.48,6.28.93,7.87,4,1.32,2.58.8,5.11-1.73,7.92a18.13,18.13,0,0,1-2.07,1.89C81.9,81.49,78,82.19,74.91,77.39Z" transform="translate(-19.52 -19.85)"/><path class="cls-4" d="M254,169.88c-.43-3.66-.1-4,3.05-5.17.7-.27.92-1.85,1.37-2.83-1.15-.49-2.34-1.47-3.41-1.36s-1.88,1.35-2.64,2.22c-1.07,1.22-1.91,2.65-3,3.84a7.84,7.84,0,0,1-8,1.83c-3-1.23-4.22-3.35-4.06-7,0-.68.14-1.36.24-2,.79-5.41,2.9-6.89,8.67-5.91-.06,1-.15,2-.17,2.94,0,1.5-.65,2-2.25,2A3.61,3.61,0,0,0,241,160a2.94,2.94,0,0,0,.81,2.79,4,4,0,0,0,3.46,0,16.25,16.25,0,0,0,3.34-3.81c2.3-3,5.05-4.84,9-3.65a5.94,5.94,0,0,1,1.41.53c3.29,1.89,4,5.86,2.11,11C260.17,169.69,257.75,170.68,254,169.88Z" transform="translate(-19.52 -19.85)"/><path class="cls-4" d="M248,106c.51-.36,1-.53,1.18-.86.51-.86,1.27-1.8,1.26-2.69a2.53,2.53,0,0,0-1.88-1.64c-.92,0-2.4.65-2.64,1.37a30.84,30.84,0,0,0-1.37,6.48c-.6,4.85-4.14,7.66-8.68,6.75-3.06-.61-5.94-4.65-6.26-8.75-.24-3.08,1.35-5.09,5.38-6.52.68,1.46,1.38,3,2.17,4.62a8.06,8.06,0,0,0-1.81,1.07c-.62.7-1.61,1.69-1.47,2.32a4.22,4.22,0,0,0,2,2.59,2.86,2.86,0,0,0,2.57-1.06,13.05,13.05,0,0,0,1.42-4.05c.4-1.65.53-3.36.93-5,.74-3.1,3.11-4.36,6-4.82a5.44,5.44,0,0,1,6.07,3.34c1,2,1.83,4.38,1.62,6.5-.15,1.58-2,3.06-3.25,4.4-.18.19-1.66-.41-2.09-1A11.65,11.65,0,0,1,248,106Z" transform="translate(-19.52 -19.85)"/><path class="cls-4" d="M45,187.15l2.32,4.51c-.69.46-1.66.76-1.84,1.31a4.47,4.47,0,0,0,0,3.13c.34.57,2.46.92,2.65.62a16.85,16.85,0,0,0,2.24-4.82c.54-2,.4-4.26,1-6.26.92-2.87,3.48-3.83,6.23-4a5.35,5.35,0,0,1,5.66,3.15,29.81,29.81,0,0,1,2.09,4.62,5.66,5.66,0,0,1-3.54,7,2.21,2.21,0,0,1-2-.69,18.9,18.9,0,0,1-1.67-3.38,5.91,5.91,0,0,0,1.65-1.07c.6-.8,1.43-1.85,1.3-2.65a3.14,3.14,0,0,0-2-2.19,3.39,3.39,0,0,0-2.83,1.47,24.84,24.84,0,0,0-1,6.25C54.85,199.36,52,202,47,201.73c-3.25-.18-4.35-2.75-5.52-5.08C39.35,192.54,40.43,189.6,45,187.15Z" transform="translate(-19.52 -19.85)"/><path class="cls-4" d="M242.68,212.86,224.16,196l.52-.52c0-.17,0-.42.09-.49,1.68-1.17,1.27-4.56,4-4.34,2.07.16,4.06,1.24,6.1,1.87,5.12,1.58,10.27,3.11,15.4,4.69a8.68,8.68,0,0,1,1.3.76l-2.77,4.54-16.16-5.87c-.11.18-.23.36-.35.55l12.61,12.07Z" transform="translate(-19.52 -19.85)"/><path class="cls-4" d="M87.35,247c-.25,0-.37,0-.42,0-4-2.89-4-2.88-1.88-7.42,1.57-3.32,3.1-6.65,4.62-10,.15-.34.12-.77-.3-1.54L76.63,239.74c-1.41-1-2.75-1.92-4.33-3l9.16-7.8c2.87-2.42,5.79-4.75,8.56-7.29,1.22-1.14,2.08-1.15,3.22-.1a21.28,21.28,0,0,1,2,1.53c.45.55,1,1.51.76,2-2.59,7-5.29,14.05-8,21.05A3.3,3.3,0,0,1,87.35,247Z" transform="translate(-19.52 -19.85)"/><path class="cls-4" d="M258.42,113.79c.73,3.84,1.66,7.48,2,11.17a4.28,4.28,0,0,1-3.21,4.71,28,28,0,0,1-6.74,1c-2.29,0-4-2.32-4.47-5.47-.51-3.32-1-3.58-4.15-2.59-1.37.43-2.84.53-4.19,1-1.82.67-2.08.07-2.56-1.72-.78-2.9.31-3.24,2.8-3.7C244.65,117,251.28,115.37,258.42,113.79Zm-5.16,11.81c.23-.07,1.48,0,1.75-.57a10.66,10.66,0,0,0,1.07-3.87c0-.38-.81-1.29-1.19-1.25a30.9,30.9,0,0,0-5,.94c-.37.1-.77.88-.77,1.35C249.13,124.33,250.54,125.6,253.27,125.6Z" transform="translate(-19.52 -19.85)"/><path class="cls-4" d="M195.58,68.54l-13.29-7.07c1.51-4.61,5.55-6,9-8,3-1.77,6.17-3.44,9.67-5.37l-8.72-4.35c1.23-3.8,1.51-3.86,4.66-2.06,2.81,1.62,5.68,3.13,8.62,4.5,1.42.68,1.4,1.23.75,2.53-1.63,3.29-5,4.23-7.73,5.91-3.18,1.95-6.52,3.65-10.26,5.73,2.36,1.23,4.37,2.35,6.44,3.36C197.93,65.3,197.95,65.27,195.58,68.54Z" transform="translate(-19.52 -19.85)"/><path class="cls-4" d="M196.93,234l-5,2.32c-.42-.91-.57-1.78-1.08-2.2-.81-.66-2-1.61-2.79-1.39-1.41.4-1.57,1.79-.9,3.17,1.62,3.29,3.18,6.61,4.76,9.92.47,1,.9,2,1.37,3,2,4.27,1.77,4.63-3.1,5.64-2.53-5.46-5.16-10.9-7.61-16.43-1.6-3.63-.32-6.59,3.37-8.44,4.62-2.32,7-1.87,9.36,1.85C195.83,232.2,196.3,233,196.93,234Z" transform="translate(-19.52 -19.85)"/><path class="cls-4" d="M56.22,220.3c-1.76-2.56-3.54-5.14-5.31-7.73-.64-.92-1.23-1.86-1.91-2.75-2.39-3.12-2.39-3.11,1.52-5.16l3,4.62,16.58-11.68,3.1,4.29c-5,3.45-9.72,6.9-14.66,10.07-1.75,1.13-2.16,1.79-.66,3.45C60.36,218.2,60.21,218.51,56.22,220.3Z" transform="translate(-19.52 -19.85)"/><path class="cls-4" d="M155.42,30.7a12.37,12.37,0,0,1,1.26,0c4,.37,3.93.36,3.4,4.42-.7,5.31-1.29,10.63-1.93,16.09l7.45.79c-.15,1.5-.28,2.73-.44,4.26L152.62,54.8C153.56,46.67,154.48,38.82,155.42,30.7Z" transform="translate(-19.52 -19.85)"/><path class="cls-4" d="M146,246.41c2.3,0,4.61-.11,6.9.08.56,0,1,1,1.57,1.6-.55.46-1.08,1.3-1.64,1.31q-6.64.17-13.28,0a2.65,2.65,0,0,1-2-1.38c-.43-1.68.91-1.61,2.08-1.6C141.7,246.43,143.83,246.41,146,246.41Z" transform="translate(-19.52 -19.85)"/><path class="cls-4" d="M267.53,170.47c-1.05-2.39-3.9-2.92-3.73-5.91.19-3.52,3.2-3.64,5.38-5.14,1.13,3.12-1.42,3.66-3.06,4.84C266.74,166.17,270,167.19,267.53,170.47Z" transform="translate(-19.52 -19.85)"/><path class="cls-4" d="M199.12,34.21c3.92-.41,2.44,3.21,3.94,4.65,1.82-.9,3.67-2.28,5.45-.08-1.76,1.91-4.73,2.86-6.48,2.14C198.77,39.58,199.91,36.6,199.12,34.21Z" transform="translate(-19.52 -19.85)"/><path class="cls-4" d="M211.87,214.84a22.29,22.29,0,0,1,2.87-3.34c.45-.36,1.6,0,2.39.25,1.1.31,2.68,1.42,3.14,1.05a23.71,23.71,0,0,0,4-4.58c.18-.24-.24-1.11-.57-1.54-2.67-3.45-2.69-3.43,1.11-7,1.08,1.62,2.13,3.21,3.21,4.77,3.31,4.79,6.58,9.59,10,14.31.94,1.3.87,2.12-.27,3.27-3.42,3.46-3.34,3.45-7.81,1.36-5.56-2.58-11.17-5-16.76-7.6A6.79,6.79,0,0,1,211.87,214.84Zm11.74.17c3.33,1,5.75,3.51,9.1,3.85a6.26,6.26,0,0,0-1.47-2.27c-.63-.68-1.3-1.34-1.92-2.05C226.67,211.46,226.68,211.46,223.6,215Z" transform="translate(-19.52 -19.85)"/><path class="cls-5" d="M133.41,157.45l3.51,2.24c.59,4.54,1.23,9,1.73,13.52a5.69,5.69,0,0,1-.67,2.42c-3.59,8.89-9.16,16.52-15.3,23.78a22.93,22.93,0,0,1-2.56,2.86,7.8,7.8,0,0,1-2.37.89,7.55,7.55,0,0,1-.42-2.58c1.18-5.91,2.36-11.83,3.76-17.68,1.83-7.63,4.23-15.06,8.94-21.49C131.06,160,132.31,158.71,133.41,157.45Z" transform="translate(-19.52 -19.85)"/><path class="cls-5" d="M153.42,157.71c7,4.63,9.73,11.61,10.94,19.47s4.79,14.63,9.43,21c.29.4.78.76.84,1.2a20.37,20.37,0,0,1,.06,2.79c-.91,0-2,.23-2.67-.19a71.13,71.13,0,0,1-6.88-5.07c-7.15-6.08-12.39-13.46-14.74-22.68a11.2,11.2,0,0,1-.23-3.14c.08-2.2.47-4.4.39-6.59C150.47,161.62,150.39,158.94,153.42,157.71Z" transform="translate(-19.52 -19.85)"/><path class="cls-5" d="M156.17,131c8.31-9.89,18.09-16.92,31.06-18.53a40.51,40.51,0,0,1,6-.06c.48,0,1.27.4,1.34.72a2.08,2.08,0,0,1-.53,1.65q-8.88,8.78-17.88,17.47a3.11,3.11,0,0,1-1.85.74c-4.31.2-8.62.27-12.94.48-1.46.07-2.91.5-3.73-1.33C157.42,131.7,156.75,131.45,156.17,131Z" transform="translate(-19.52 -19.85)"/><path class="cls-5" d="M206.15,162.65c-2-.58-4-1.58-6-1.66-6.25-.28-12.53-.47-18.79-.18-5.39.26-10-.11-13.3-5.29-1.62-2.54-4.21-4.44-6.32-6.66-.33-.35-.66-1-.52-1.38a1.52,1.52,0,0,1,1.3-.64c9.68,1,19.38,1.85,28.68,5a38.37,38.37,0,0,1,13.49,7.59,20.81,20.81,0,0,1,2.1,2.58Z" transform="translate(-19.52 -19.85)"/><path class="cls-5" d="M130,132.62c-5.26-.61-10-1.12-14.78-1.76a4.57,4.57,0,0,1-2.34-1.23c-4.15-3.91-8.21-7.93-12.37-11.83-1.29-1.23-2.78-2.22-4.19-3.33-.88-.7-2.19-1.54-1.27-2.71a3.68,3.68,0,0,1,3.09-1.09,80.81,80.81,0,0,1,9.93,3,80.12,80.12,0,0,1,21.23,12.48,5.36,5.36,0,0,1,1.73,3.48C131.15,130.76,130.29,131.94,130,132.62Z" transform="translate(-19.52 -19.85)"/><path class="cls-5" d="M92.45,163.48c-1.71,0-3.44.09-5.14-.06a1.93,1.93,0,0,1-1.4-1.15,2,2,0,0,1,.7-1.76c7.65-3.87,15.28-7.81,23.06-11.43a39.68,39.68,0,0,1,15.11-3.22c.57,0,1.17.65,1.76,1-.38.5-.65,1.21-1.15,1.49-4.46,2.39-8.22,5.32-9.61,10.54-.15.6-1.16,1.16-1.88,1.38A71,71,0,0,1,92.45,163.48Z" transform="translate(-19.52 -19.85)"/><path class="cls-5" d="M151.49,115a21,21,0,0,1-1.17,3c-1.27,2.2-2.8,4.27-3.92,6.55a2,2,0,0,1-2.61,1.12,3,3,0,0,1-1.8-1.25c-1.47-2.43-3.22-4.81-4-7.46a13.8,13.8,0,0,1,.09-6.83c1.15-4.81,2.78-9.49,4.11-14.26.43-1.56.49-3.22.77-4.83a6.16,6.16,0,0,1,.53-1.27c.47.24,1.15.35,1.39.73a8.92,8.92,0,0,1,.89,2.36q2.6,9.62,5.13,19.27a20.31,20.31,0,0,1,.37,2.74Z" transform="translate(-19.52 -19.85)"/><path class="cls-5" d="M141.49,151.59h3.91c-.23,1.58-.88,3.26-.57,4.75a5,5,0,0,0,2.59,3,2.33,2.33,0,0,1,1.59,2.55,34.79,34.79,0,0,1-3.13,16.82,9.55,9.55,0,0,1-1.26,1.58,7.81,7.81,0,0,1-1.66-1.47c-3.47-5.69-4.19-12-3.86-18.47a1.92,1.92,0,0,1,.61-1.24C143.06,156.3,143.29,155.36,141.49,151.59Z" transform="translate(-19.52 -19.85)"/><path class="cls-5" d="M135.95,146.57l2.67,3.5c-3.24.15-5.1,1.67-5.45,4.86a2.57,2.57,0,0,1-.86,1.38c-4.58,4.1-9.38,7.88-15.25,10a2,2,0,0,1-.6.2c-1.07,0-2.12,0-3.19,0,.5-.8,1-1.57,1.5-2.37a22.63,22.63,0,0,0,2.52-4.61c1.46-5,5.05-7.75,9.38-9.88a2.11,2.11,0,0,1,1.57-.11C132.37,151.11,134.19,150.44,135.95,146.57Z" transform="translate(-19.52 -19.85)"/><path class="cls-5" d="M136.39,139.16c-.34,1.42-.66,2.71-1,4.19-1.82-1.86-3.81-2.84-6.44-1.69a6.51,6.51,0,0,1-3.77.67,72.69,72.69,0,0,1-8.48-2.71c-3-1.14-6-2.4-9-3.67a4.85,4.85,0,0,1-1.16-1c.45-.49.83-1.28,1.38-1.43a16.14,16.14,0,0,1,5.22-.9c4.94.39,9.86,1.07,14.78,1.74a2.22,2.22,0,0,1,1.4,1.24C130.77,139.19,132.24,140,136.39,139.16Z" transform="translate(-19.52 -19.85)"/><path class="cls-5" d="M149.93,137.1,145.82,135c3.57-2.63,3.78-3.64,1.7-8a1.3,1.3,0,0,1-.09-1c2.93-5.9,6.33-11.36,13.15-13.42a9.57,9.57,0,0,1,2.34-.21c-1.9,4.53-3.63,9.08-5.71,13.45a11.13,11.13,0,0,1-3.83,4.7C150.82,132.08,148.9,133.56,149.93,137.1Z" transform="translate(-19.52 -19.85)"/><path class="cls-5" d="M148.64,150.54l3-3.52c1.6,4.41,4.52,5.37,8.61,2.59,2,2.16,4.15,4.36,6.21,6.58s4.11,4.49,6.26,6.84c-1.85,1.48-3.88,1.06-5.63.75a17.54,17.54,0,0,1-13.61-10.38A4.73,4.73,0,0,0,148.64,150.54Z" transform="translate(-19.52 -19.85)"/><path class="cls-5" d="M180.73,137.78c-5.93,1.62-11.82,3.35-17.79,4.8a10.47,10.47,0,0,1-4.74-.33c-1.93-.48-3.39-.28-5.7,1.47-.15-.69-.28-1.38-.44-2.05s-.34-1.32-.52-2c4.38,1.12,5.58.51,7.31-3.37a1.82,1.82,0,0,1,1.22-1c6.06-.92,12.14-1.79,18.13.29a17.48,17.48,0,0,1,2.9,1.68Z" transform="translate(-19.52 -19.85)"/><path class="cls-5" d="M142.5,134.9c-1.26.53-2.43,1-3.78,1.56-.06-.91.19-1.93-.21-2.5-.88-1.27-1.94-3-3.21-3.31a3.7,3.7,0,0,1-3.13-3.15c-.6-2.48-1.16-5-1.75-7.46-.35-1.45-.66-2.9-1.08-4.34s-1-2.8-1.65-4.82a10.26,10.26,0,0,1,2.7.81c5.13,3.55,8,8.78,10.41,14.31a1.83,1.83,0,0,1-.11,1.35C138.94,130.93,139.21,132.19,142.5,134.9Z" transform="translate(-19.52 -19.85)"/><path class="cls-5" d="M150.71,143.27a7,7,0,0,1-6.74,6.9,6.87,6.87,0,1,1-.06-13.73A7,7,0,0,1,150.71,143.27Z" transform="translate(-19.52 -19.85)"/><path class="cls-5" d="M131.2,142.82a2.79,2.79,0,0,1,2.84,3,3,3,0,0,1-2.9,3,3.4,3.4,0,0,1-3.11-3.18A3.21,3.21,0,0,1,131.2,142.82Z" transform="translate(-19.52 -19.85)"/><path class="cls-5" d="M137.79,157.9a3,3,0,0,1-2.89-3,3.1,3.1,0,0,1,3-3,3,3,0,0,1,3,2.93A3.17,3.17,0,0,1,137.79,157.9Z" transform="translate(-19.52 -19.85)"/><path class="cls-5" d="M151.35,135.48a2.83,2.83,0,0,1,2.92-3,2.7,2.7,0,0,1,2.91,2.88,3,3,0,0,1-2.75,3.17A3.08,3.08,0,0,1,151.35,135.48Z" transform="translate(-19.52 -19.85)"/><path class="cls-5" d="M149.17,158.22a3,3,0,0,1-2.89-3,2.73,2.73,0,0,1,2.87-2.95,3.07,3.07,0,0,1,3.1,3.29A3.19,3.19,0,0,1,149.17,158.22Z" transform="translate(-19.52 -19.85)"/><path class="cls-5" d="M144.27,127.33a3,3,0,1,1-.12,6,3.23,3.23,0,0,1-2.94-3.06A3.31,3.31,0,0,1,144.27,127.33Z" transform="translate(-19.52 -19.85)"/><path class="cls-5" d="M134.12,132a2.8,2.8,0,0,1,2.87,3,2.84,2.84,0,0,1-3.16,2.74,3,3,0,0,1-2.89-3.08A2.79,2.79,0,0,1,134.12,132Z" transform="translate(-19.52 -19.85)"/><path class="cls-5" d="M156.38,149.59a3,3,0,0,1-2.8-3.14,2.7,2.7,0,0,1,3.05-2.78,3,3,0,0,1,3,2.79A3.45,3.45,0,0,1,156.38,149.59Z" transform="translate(-19.52 -19.85)"/></svg>